<svg xmlns="http://www.w3.org/2000/svg" viewBox="0 0 24 24" fill="currentColor">
  <path d="M22.46 6c-.77.35-1.6.58-2.46.69.88-.53 1.56-1.37 1.88-2.37-.83.5-1.75.85-2.72 1.05C18.37 4.5 17.26 4 16 4c-2.35 0-4.27 1.92-4.27 4.29 0 .34.04.67.11.98C8.28 9.09 5.11 7.38 3 4.79c-.37.63-.58 1.37-.58 2.15 0 1.49.75 2.81 1.91 3.56-.71 0-1.37-.2-1.95-.5v.03c0 2.08 1.48 3.82 3.44 4.21-.36.1-.74.15-1.13.15-.28 0-.55-.03-.81-.08.55 1.77 2.18 3.05 4.1 3.08-1.5 1.2-3.4 1.92-5.46 1.92-.36 0-.71-.02-1.06-.06 1.97 1.27 4.31 2 6.82 2 8.21 0 12.71-6.8 12.71-12.71 0-.19 0-.38-.01-.57.87-.63 1.63-1.42 2.24-2.32z"/>
</svg>
